<svg xmlns="http://www.w3.org/2000/svg" viewBox="0 0 32 32" fill="none">
  <rect width="32" height="32" rx="6" fill="#10b981"/>
  <!-- Phosphor Plant Fill icon -->
  <svg x="4" y="4" width="24" height="24" viewBox="0 0 256 256" fill="white">
    <path d="M247.63,47.89a8,8,0,0,0-7.52-7.52c-51.76-3-93.32,12.74-111.18,42.22-11.8,19.49-11.78,43.16-.16,65.74a71.34,71.34,0,0,0-14.17,27L98.33,159c7.82-16.33,7.52-33.35-1-47.49C84.09,89.73,53.62,78,15.79,80.27a8,8,0,0,0-7.52,7.52c-2.23,37.83,9.46,68.3,31.25,81.5A45.82,45.82,0,0,0,63.44,176,54.58,54.58,0,0,0,87,170.33l25,25V224a8,8,0,0,0,16,0V194.51a55.61,55.61,0,0,1,12.27-35,73.91,73.91,0,0,0,33.31,8.4,60.9,60.9,0,0,0,31.83-8.86C234.89,141.21,250.67,99.65,247.63,47.89Z"/>
  </svg>
</svg>
